HIERARCHY
ROOT Hips
{
	OFFSET -14.64140 90.27770 -84.91600
	CHANNELS 6 Xposition Yposition Zposition Zrotation Xrotation Yrotation
	JOINT Spine
	{
		OFFSET 0.00000 13.20850 -1.60436
		CHANNELS 3 Zrotation Xrotation Yrotation
		JOINT Spine1
		{
			OFFSET 0.00000 8.61716 0.00000
			CHANNELS 3 Zrotation Xrotation Yrotation
			JOINT Spine2
			{
				OFFSET 0.00000 8.61717 0.00000
				CHANNELS 3 Zrotation Xrotation Yrotation
				JOINT Spine3
				{
					OFFSET 0.00000 8.61717 0.00000
					CHANNELS 3 Zrotation Xrotation Yrotation
					JOINT Neck
					{
						OFFSET 0.00000 11.07920 1.10792
						CHANNELS 3 Zrotation Xrotation Yrotation
						JOINT Neck1
						{
							OFFSET 0.00000 7.08032 0.00000
							CHANNELS 3 Zrotation Xrotation Yrotation
							JOINT Head
							{
								OFFSET 0.00000 7.08031 0.00000
								CHANNELS 3 Zrotation Xrotation Yrotation
								End site
								{
									OFFSET 0.00000 0.00000 0.00000
								}
							}
						}
					}
					JOINT RightShoulder
					{
						OFFSET -0.01000 7.91373 5.19711
						CHANNELS 3 Zrotation Xrotation Yrotation
						JOINT RightArm
						{
							OFFSET -18.41580 0.00000 0.00000
							CHANNELS 3 Zrotation Xrotation Yrotation
							JOINT RightForeArm
							{
								OFFSET -29.11090 0.00000 0.00000
								CHANNELS 3 Zrotation Xrotation Yrotation
								JOINT RightHand
								{
									OFFSET -24.65040 0.00000 0.00000
									CHANNELS 3 Zrotation Xrotation Yrotation
									JOINT RightHandThumb1
									{
										OFFSET -5.35114 -0.85590 3.97906
										CHANNELS 3 Zrotation Xrotation Yrotation
										JOINT RightHandThumb2
										{
											OFFSET -4.52789 0.00000 0.00000
											CHANNELS 3 Zrotation Xrotation Yrotation
											JOINT RightHandThumb3
											{
												OFFSET -2.46976 0.00000 0.00000
												CHANNELS 3 Zrotation Xrotation Yrotation
												End site
												{
													OFFSET 0.00000 0.00000 0.00000
												}
											}
										}
									}
									JOINT RightHandIndex1
									{
										OFFSET -14.26970 0.00000 2.88139
										CHANNELS 3 Zrotation Xrotation Yrotation
										JOINT RightHandIndex2
										{
											OFFSET -5.48836 0.00000 0.00000
											CHANNELS 3 Zrotation Xrotation Yrotation
											JOINT RightHandIndex3
											{
												OFFSET -3.01859 0.00000 0.00000
												CHANNELS 3 Zrotation Xrotation Yrotation
												End site
												{
													OFFSET 0.00000 0.00000 0.00000
												}
											}
										}
									}
									JOINT RightHandMiddle1
									{
										OFFSET -14.26970 0.00000 -0.09147
										CHANNELS 3 Zrotation Xrotation Yrotation
										JOINT RightHandMiddle2
										{
											OFFSET -6.17441 0.00000 0.00000
											CHANNELS 3 Zrotation Xrotation Yrotation
											JOINT RightHandMiddle3
											{
												OFFSET -3.56743 0.00000 0.00000
												CHANNELS 3 Zrotation Xrotation Yrotation
												End site
												{
													OFFSET 0.00000 0.00000 0.00000
												}
											}
										}
									}
									JOINT RightHandRing1
									{
										OFFSET -12.69180 0.00000 -3.06433
										CHANNELS 3 Zrotation Xrotation Yrotation
										JOINT RightHandRing2
										{
											OFFSET -5.62556 0.00000 0.00000
											CHANNELS 3 Zrotation Xrotation Yrotation
											JOINT RightHandRing3
											{
												OFFSET -3.56744 0.00000 0.00000
												CHANNELS 3 Zrotation Xrotation Yrotation
												End site
												{
													OFFSET 0.00000 0.00000 0.00000
												}
											}
										}
									}
									JOINT RightHandPinky1
									{
										OFFSET -11.11390 0.00000 -6.03719
										CHANNELS 3 Zrotation Xrotation Yrotation
										JOINT RightHandPinky2
										{
											OFFSET -4.52789 0.00000 0.00000
											CHANNELS 3 Zrotation Xrotation Yrotation
											JOINT RightHandPinky3
											{
												OFFSET -2.46976 0.00000 0.00000
												CHANNELS 3 Zrotation Xrotation Yrotation
												End site
												{
													OFFSET 0.00000 0.00000 0.00000
												}
											}
										}
									}
								}
							}
						}
					}
					JOINT LeftShoulder
					{
						OFFSET 0.01000 7.91373 5.19711
						CHANNELS 3 Zrotation Xrotation Yrotation
						JOINT LeftArm
						{
							OFFSET 18.41580 0.00000 0.00000
							CHANNELS 3 Zrotation Xrotation Yrotation
							JOINT LeftForeArm
							{
								OFFSET 29.11090 0.00000 0.00000
								CHANNELS 3 Zrotation Xrotation Yrotation
								JOINT LeftHand
								{
									OFFSET 24.65040 0.00000 0.00000
									CHANNELS 3 Zrotation Xrotation Yrotation
									JOINT LeftHandThumb1
									{
										OFFSET 5.35114 -0.85590 3.97906
										CHANNELS 3 Zrotation Xrotation Yrotation
										JOINT LeftHandThumb2
										{
											OFFSET 4.52789 0.00000 0.00000
											CHANNELS 3 Zrotation Xrotation Yrotation
											JOINT LeftHandThumb3
											{
												OFFSET 2.46977 0.00000 0.00000
												CHANNELS 3 Zrotation Xrotation Yrotation
												End site
												{
													OFFSET 0.00000 0.00000 0.00000
												}
											}
										}
									}
									JOINT LeftHandIndex1
									{
										OFFSET 14.26970 0.00000 2.88139
										CHANNELS 3 Zrotation Xrotation Yrotation
										JOINT LeftHandIndex2
										{
											OFFSET 5.48836 0.00000 0.00000
											CHANNELS 3 Zrotation Xrotation Yrotation
											JOINT LeftHandIndex3
											{
												OFFSET 3.01859 0.00000 0.00000
												CHANNELS 3 Zrotation Xrotation Yrotation
												End site
												{
													OFFSET 0.00000 0.00000 0.00000
												}
											}
										}
									}
									JOINT LeftHandMiddle1
									{
										OFFSET 14.26970 0.00000 -0.09147
										CHANNELS 3 Zrotation Xrotation Yrotation
										JOINT LeftHandMiddle2
										{
											OFFSET 6.17440 0.00000 0.00000
											CHANNELS 3 Zrotation Xrotation Yrotation
											JOINT LeftHandMiddle3
											{
												OFFSET 3.56744 0.00000 0.00000
												CHANNELS 3 Zrotation Xrotation Yrotation
												End site
												{
													OFFSET 0.00000 0.00000 0.00000
												}
											}
										}
									}
									JOINT LeftHandRing1
									{
										OFFSET 12.69180 0.00000 -3.06433
										CHANNELS 3 Zrotation Xrotation Yrotation
										JOINT LeftHandRing2
										{
											OFFSET 5.62556 0.00000 0.00000
											CHANNELS 3 Zrotation Xrotation Yrotation
											JOINT LeftHandRing3
											{
												OFFSET 3.56744 0.00000 0.00000
												CHANNELS 3 Zrotation Xrotation Yrotation
												End site
												{
													OFFSET 0.00000 0.00000 0.00000
												}
											}
										}
									}
									JOINT LeftHandPinky1
									{
										OFFSET 11.11390 0.00000 -6.03719
										CHANNELS 3 Zrotation Xrotation Yrotation
										JOINT LeftHandPinky2
										{
											OFFSET 4.52789 0.00000 0.00000
											CHANNELS 3 Zrotation Xrotation Yrotation
											JOINT LeftHandPinky3
											{
												OFFSET 2.46976 0.00000 0.00000
												CHANNELS 3 Zrotation Xrotation Yrotation
												End site
												{
													OFFSET 0.00000 0.00000 0.00000
												}
											}
										}
									}
								}
							}
						}
					}
					JOINT pCube4
					{
						OFFSET 0.00000 10.91090 1.10792
						CHANNELS 3 Zrotation Xrotation Yrotation
						End site
						{
							OFFSET 0.00000 0.00000 0.00000
						}
					}
				}
			}
		}
	}
	JOINT RightUpLeg
	{
		OFFSET -9.98441 0.00000 0.00000
		CHANNELS 3 Zrotation Xrotation Yrotation
		JOINT RightLeg
		{
			OFFSET 0.00000 -42.11790 0.00000
			CHANNELS 3 Zrotation Xrotation Yrotation
			JOINT RightFoot
			{
				OFFSET 0.00000 -45.00020 -0.00001
				CHANNELS 3 Zrotation Xrotation Yrotation
				JOINT RightForeFoot
				{
					OFFSET 0.00000 -3.74820 0.00000
					CHANNELS 3 Zrotation Xrotation Yrotation
					JOINT RightToeBase
					{
						OFFSET 0.00000 0.06325 14.43120
						CHANNELS 3 Zrotation Xrotation Yrotation
						End site
						{
							OFFSET 0.00000 0.00000 0.00000
						}
					}
				}
			}
		}
	}
	JOINT LeftUpLeg
	{
		OFFSET 9.98441 0.00000 0.00000
		CHANNELS 3 Zrotation Xrotation Yrotation
		JOINT LeftLeg
		{
			OFFSET 0.00000 -42.11800 0.00000
			CHANNELS 3 Zrotation Xrotation Yrotation
			JOINT LeftFoot
			{
				OFFSET 0.00000 -45.00070 0.00000
				CHANNELS 3 Zrotation Xrotation Yrotation
				JOINT LeftForeFoot
				{
					OFFSET 0.00000 -3.74824 0.00000
					CHANNELS 3 Zrotation Xrotation Yrotation
					JOINT LeftToeBase
					{
						OFFSET 0.00000 0.06325 14.43110
						CHANNELS 3 Zrotation Xrotation Yrotation
						End site
						{
							OFFSET 0.00000 0.00000 0.00000
						}
					}
				}
			}
		}
	}
}
MOTION
Frames: 4
Frame Time: 0.050000
-0.0029982404349762327 0.010132448375581981 -0.04215697471622498 0.03530110796778752 -0.015421577555385538 -0.023665994117667954 -0.02999392760190204 3.0486521164812985 -1.3385865532694963 -0.49757109626284207 3.367557652659001 0.3231663478655513 -0.4831778777659415 -1.2912052537043217 -1.635409677855509 -0.8299095828473887 -0.6468974355207582 -0.7802500597139157 -1.5285090226251252 10.936084072292259 2.3158321429635635 0.08863181505776162 -0.5111119260849806 5.713861234914519 -0.592904904799264 -15.473925055692668 0.5101391671980655 -1.770740770591664 1.4003276983738133 -12.841174530299515 70.57743541206959 5.787964665695931 14.397635860630743 -0.8954518041323194 8.67244021375223 83.33341367347666 21.2290417002392 -0.42874360779459125 -2.6870938418507375 4.571611445509774 -0.1353697290025296 -1.58894479281184 0.014650206107053344 0.040197178520930146 -56.259199502298 -0.04567690390933289 -0.04291560487556141 -56.277109618914075 -38.75297685528778 -0.020965724762651513 -0.04641330261721736 -0.008460614077670212 -0.020640051820405327 -0.04432371512158975 -0.017831733346728197 0.023196303916137948 -0.04651974594551174 -36.65944676729172 0.04012009726010646 0.020236591661100724 -0.02593775657333391 0.028461712545747017 0.0016910163039190436 0.03485141049384375 0.03981486943821907 -0.025390045845252382 -19.756517379929747 0.014478536522395363 0.03031688936140666 0.011038392002175552 -0.039642677364870954 0.03123575689675413 -0.00110082508117314 0.02703538818896474 -0.021711942770008912 24.031722278619306 0.04739823078330194 -0.007733968723056627 28.882867998294547 -0.0403728726689825 -0.007414630470226891 28.86034806442054 -0.022308818060826987 0.010010707955585323 7.935416473534368 2.0606549103878473 11.24781793978783 -63.40429911964371 13.417661675452672 -36.658191995257496 11.95941845058338 -7.928010594036898 -70.2775294402205 -19.50187107529117 -0.07404428028915339 2.19333600871757 -0.46435159835316875 0.1003509188512445 -8.08062247100991 0.03466806815655557 0.01847542165947414 44.563610377067846 -0.03075167989592752 0.00066644411993168 44.55842857393215 12.453593886601501 0.034674864752030195 -0.04503553204286001 0.04549562507097877 0.036807404973116124 -0.03061725799141912 -0.042321594635339584 -0.01209593687654093 0.019183119938939182 11.115098114083915 0.009434116610481864 -0.01862983942943931 0.041680252141192045 0.0382484362053789 0.010590603558218233 -0.00856739382791015 0.038589189053222124 -0.01697480693922007 4.813791764511069 0.0048067418268454565 -0.03480057704923109 0.019624976655326937 0.030723932167977128 0.04722425057193411 -0.0025758976554488095 -0.04106126481259851 0.009864802999341908 -5.575508647130798 0.0012314967527215317 -0.026458810602909635 -6.71449388413533 -0.010797950830534392 -0.00945345105114313 -6.729222680734825 0.03473286672322167 0.029555687167102433 -0.026495088091152603 0.0065485920172478505 -0.04747498022620641 8.00834773467929 3.5111592698701077 -19.25405838937587 -0.011878390850645761 10.378473001530757 -0.03140260982813471 -5.639275300647331 -15.660127005673244 3.145871824159737 0.01010344236412856 -0.007391131106703995 -0.01063917083557849 -0.023170236455443236 4.686788499301984 0.004034460308496968 12.47876044189186 -8.22705001113194 6.932726872875372 -0.019885165777369075 46.341211933561574 0.01800458625590414 -4.364341506192121 -14.745516919156522 -3.867122053071371 0.007494911197230113 0.006162211070899922 0.01031370645879281 -0.0398944398109571 -10.75737191863161 -0.0024931095674547428 
-0.0064364467925478695 -0.042152904204904564 0.035858975340937044 0.035475499851890295 -0.021203802894160396 0.03767438424601982 -0.13227588447648483 3.2904329985452327 -1.3091494145838933 -0.47529833229839435 3.403962582391511 0.287832997048643 -0.49715802246662993 -1.1448095895454333 -1.6934186668735234 -0.81636058840539 -0.5600699661535632 -0.7945246449265153 -1.4707005313858896 10.689667356360442 2.450193774902718 0.10525623429729711 -0.6498807853753913 5.945485866414992 -0.613600184978584 -15.596251014910132 0.5242636861345453 -1.6405435035860274 1.4024582838204622 -12.707690559647139 70.69967825790512 5.0522338940925176 13.905194429944801 -1.471632334057829 8.628141145135551 82.56600791199938 20.692647446420214 -0.4181038635586507 -2.409502745386357 4.522290093861344 -0.1493084509168594 -1.5907780060727743 0.013685179225132217 -0.005054727347910595 -56.19800037372064 0.023356458423982658 -0.04808645391460062 -56.19382963368598 -38.757687312268416 0.01321325337627932 0.027101917076318007 0.008765772380378515 -0.04479357716618784 0.036317144332302355 -0.03005916319801316 0.04236842103658754 0.016851143496316442 -36.74065454376189 0.04884944133140497 0.042107455561364526 -0.0033408489557563608 0.0030518158196402075 0.026007110429625963 0.024619295490544087 0.026024588912075715 0.02756925335229074 -19.762245810327837 -0.005701331112898882 -0.009987345328359164 -0.0033128040841456214 -0.012706767564140681 -0.005921852029073075 0.01773440421858351 0.03520018604737113 0.026197552360260685 24.05711361753378 -0.002363326791410523 0.038306941511406636 28.86201328053575 -0.04676021561098149 0.03618616851593368 28.816301085642376 -0.030164663533441084 0.004100965793735224 7.657442929314021 2.019329705398517 11.059041020904086 -63.421884031593976 14.146298065012802 -36.00719581722556 12.806179528861344 -8.580993753912074 -69.73517167517268 -18.47890610817884 -0.28123847707882155 2.585192676369255 -0.49189279723760226 0.1015570015395878 -8.153200549129282 0.04573871564182256 0.023064637058927313 44.576452170368185 -0.045738964495006786 -0.008841988081782387 44.55660289222564 12.441447665514032 0.02300360087315469 -0.016410195596560675 0.012743244837031181 0.027567673172713025 0.027711949138759618 -0.0328275477068931 -0.005568514889186937 -0.013577645961589105 11.1183410038705 -0.03745569765049042 0.027674185499726486 0.0029931896272925185 0.034810779944663674 -0.012746053911418895 0.029886265466610364 0.044332987532753956 0.01719489324232551 4.822219398450592 -0.01849856220959148 0.03726115199185679 0.008390099186309596 0.0032056740216405296 -0.04196132728009154 0.030268034118690987 -0.010975361310870716 -0.022209012453740285 -5.609720668002364 -0.00639606451700008 -0.04596354554923534 -6.735867212907469 -0.04191447178966881 -0.03896390048993828 -6.715593095540968 0.002995268878509253 -0.027841362732027183 0.03812740658659173 -0.0206177358304956 -0.009656994640108421 8.012562502183854 3.4905882965787915 -19.178848022413447 0.0032294853426140346 10.357758895626928 0.018194063861993764 -5.650933790879093 -15.656367147659557 3.1508503641870758 0.004859138410851891 -0.006213605892440831 -0.014329716470630558 0.015722822489031025 4.714631440802333 -0.011521507655697961 12.415020927962809 -8.24664159850828 6.855686966505606 0.03204930004107367 46.39627368528621 0.03048220569673337 -4.342001134045689 -14.766002916973383 -3.7923390774068255 0.03794181194023978 -0.04777517878135347 -0.030254046882989542 -0.040726477720675267 -10.709658672188018 0.002950444647862576 
0.019979941338928504 0.03030408066207615 -0.04747678265765001 0.005001465622785431 0.04712011707133699 0.012281273779946093 -0.27288378779954087 3.3046441338920505 -1.3180479985155433 -0.49842703536271254 3.341479646405563 0.2502109552237841 -0.541071184410127 -1.1978679010009587 -1.843898770241812 -0.8667046259719486 -0.5795145553824728 -0.7554714613303825 -1.5226431964697702 10.604208555337435 2.6192246712424945 0.06648227439174413 -0.7694110996302962 6.316203014385581 -0.6696945151781541 -15.721318049826063 0.5630496873341976 -1.57944616307289 1.3605333894679317 -12.736344547793259 70.7310460996099 3.9990436226166532 13.554639898988457 -2.2616680399992144 8.659918235765375 81.18865196350632 20.90075674757333 -0.391030468800687 -2.156767368504605 4.52495292622101 -0.12167724539440304 -1.571687412513945 0.024849073114156413 -0.006019581117836511 -56.27328740400096 -0.03988780589969043 0.01957461186412895 -56.232737390821384 -38.78426233044411 -0.016018933840948508 0.033284520502899796 0.02201830785188695 -0.03598951777477744 -0.01692262287066267 -0.023474479286848874 -0.015584720906479256 0.016015455413643576 -36.66459504945627 -0.003811450801148995 -0.014908387743738491 0.028021204210796374 0.023947007396051278 -0.0022401214395951084 0.016023104889983184 0.025454790291117333 0.04444345115642804 -19.764501560393764 -0.03599008595655175 0.0037558740261943112 -0.0067916888417908165 -0.003227722838512225 -0.037522774797132605 -0.03305440278126742 -0.043515604072231914 -0.024827808696527065 24.05199512943288 0.00015163201704121193 0.015996039675395653 28.827107891550185 -0.015028836100976304 0.010604713010744627 28.91149968320999 -0.0320999825302031 0.027632583064848906 7.510442625281617 2.031319729509687 10.919107026372657 -63.95671018840151 14.376926043355967 -35.211525899767416 11.618920406050062 -8.058797116197896 -68.18810918112928 -18.569407454085816 -0.25539990947955055 2.8673768789021135 -0.4451826329734295 0.03564034873933855 -8.149364003010627 0.03510279696608655 0.02318313418045428 44.56287591955923 0.016700419438707214 -0.02050701576765044 44.5196792236024 12.47005331570068 0.023532599798114024 0.030072430307614983 -0.015041044963624286 -0.008420559605771073 -0.019877312288188228 -0.0074038885844655246 0.00794525084040927 -0.04505982303877681 11.086574649233626 -0.015417464804798355 -0.040671974924720806 0.026978131181870785 0.027636722110720793 -0.049489475672339266 0.0008520333106267873 -0.024674074047566993 0.018921017126676806 4.820856285825852 -0.005087076603721029 0.009316788246753175 0.02898959129521747 0.01578422015128428 -0.026966776298406818 0.01094137291844163 -0.00947480443377411 -0.010156400544619323 -5.609248974001002 0.048300632466210296 -0.03160423951985881 -6.706151001551238 0.0011790939263936302 0.015749769309212458 -6.7221640603903055 0.007113120017456964 -0.020772507085892084 0.024381028635172046 -0.0007506444643993397 0.03433943638114485 8.008828150327982 3.534482940298597 -19.237939396675053 0.04256075622769686 10.345973107168055 0.06389416546572355 -5.612791179342186 -15.692585703084248 3.1586750218520065 0.004018566970782414 0.011707575155426624 0.003883801259479529 -0.008287135097127299 4.717546131052749 -0.04304957363902615 12.451765786387874 -8.249015757679055 6.866861928415438 0.017643785209365995 46.387728648071054 -0.013007215973516353 -4.325187969075019 -14.785562820364818 -3.8563385245199866 0.013790322484999295 -0.03140972907470844 -0.019025379703457506 -0.040894633824408486 -10.700405676419305 0.0016333406403529003 
-0.010562615756924139 0.024721695706712496 0.04428164344124659 0.008232873216457081 -0.03909950502373713 -0.028684390043018856 -0.36616283272619243 3.3920727848646437 -1.2640902102736427 -0.5208110707988264 3.3985138207778895 0.2523005761305109 -0.48996208465558766 -1.1910826171869615 -1.893706769864311 -0.9855863931172046 -0.6443361181071687 -0.8004165909803624 -1.5470856940001885 10.47068028928372 2.7117013128205447 0.08909719515534531 -0.8688353369050731 6.605709324969277 -0.7061564847800751 -15.860386640634191 0.5945024055650008 -1.7449234350470684 1.453388728148617 -12.742872558160242 70.49572947968619 1.402239307214883 13.715100209117281 -3.6998641983150335 8.64260560888043 79.37366695878453 21.232401158021776 -0.38757580755320664 -1.6726950277017438 4.518501220379121 -0.09274799788166804 -1.6090879290645297 0.02415949381671647 0.02775534839275587 -56.207694631977624 0.04464870487941507 0.02863349829863536 -56.258815450385356 -38.74636646097861 -0.006724645887279062 -0.03505532469995926 0.010222895242933905 0.010855698199207885 0.01099859819808518 0.00019191305000030426 0.005771208090600298 0.015407695760884585 -36.73360428731107 -0.02097601935310937 -0.03743644898088271 0.007346616120022063 0.0037850161723791964 -0.024223799283213925 0.008278659234465802 0.042969654034166534 -0.005382656680732908 -19.72862682080133 -0.0015088222028068427 0.008031269147317744 -0.002918762077745992 -0.023647340733584717 -0.018983543677718647 -0.022304605910119773 -0.006381020944171169 -0.03758287722844024 24.050721819192937 -0.016461109079889347 -0.019264931682903906 28.853372615401533 -0.043666698397231044 0.0031101033461805624 28.882172392380664 -0.04794365353604549 0.01958589534587186 7.457515545267275 1.9611540125016775 10.778381070388235 -64.45910730076025 13.64613078931591 -35.08496692246304 10.202511434946814 -7.1779299094050115 -66.54485870637082 -18.780975403643527 0.02351058254938987 2.8176762326248155 -0.5044972472818325 0.07776492921012909 -8.086879468245016 -0.023618939619140678 0.016531432561754288 44.54389582195522 -0.02105069926399859 -0.03553577752965836 44.53487975217371 12.506460898818561 0.048821367798198 0.04842584368026531 0.03271784355225471 -0.004410986774295189 0.017074789750851013 0.0049789084805799385 -0.005745452637017986 -0.016162210500295884 11.087085039049722 0.047857104962199186 -0.036239240461412914 0.014537155443485916 0.04975377963856548 0.025736431094672073 -0.031111713310725 -0.0381063641517148 0.006600488186599425 4.792788227111625 -0.03509778708307708 -0.004553832631952419 -0.017069160162357253 0.029094413661262444 0.006217595556015705 -0.03797190465711736 0.016598266496659526 0.003842210859071493 -5.620551315012545 -0.031039484865702138 -5.378154160896304e-05 -6.707445287837079 -0.008332418039721314 -0.010376077562232586 -6.740118178656522 -0.022666283927029927 0.042702003264965434 -0.00145099411929283 0.034983544681296885 0.0089758181875919 8.037732542871906 3.4717875654510473 -19.2119794653231 -0.007827786266251769 10.414581520436085 0.0011526865577261673 -5.627769342930536 -15.630163738696544 3.1938671177806826 0.0022527858265864566 -0.03870897705999685 -0.012084601963453028 0.010668760444373086 4.67226491636282 -0.009324125831041353 12.50249562328372 -8.27663580244392 6.879896682754321 -0.013587950860520571 46.34139502495036 -0.00496302396651126 -4.303675489986666 -14.737814226552366 -3.861581749058228 0.04362023792430707 -0.008512690835646812 0.0463070793550875 0.00724596355934703 -10.751678980628698 -0.01884415540266536 
